<svg width="109" height="112" viewBox="0 0 109 112" fill="none" xmlns="http://www.w3.org/2000/svg">
<g filter="url(#filter0_b_1073_2432)">
<ellipse cx="54.1908" cy="55.791" rx="54.1908" ry="55.791" fill="#818181" fill-opacity="0.1"/>
<path d="M107.882 55.791C107.882 86.3412 83.8298 111.082 54.1908 111.082C24.5518 111.082 0.5 86.3412 0.5 55.791C0.5 25.2408 24.5518 0.5 54.1908 0.5C83.8298 0.5 107.882 25.2408 107.882 55.791Z" stroke="#939393" stroke-opacity="0.1"/>
</g>
<path fill-rule="evenodd" clip-rule="evenodd" d="M23.7085 69.0921C23.7085 67.3375 23.7085 65.5828 23.7085 63.8281C23.7445 63.5639 23.7858 63.3002 23.8156 63.0353C24.0369 61.067 24.1655 59.0824 24.4916 57.1328C25.7874 49.3868 28.763 42.3342 32.9747 35.8121C33.1211 35.5853 33.3585 35.3784 33.5992 35.2651C37.45 33.4512 41.4728 32.2007 45.6328 31.4028C45.9703 31.338 46.1593 31.4219 46.307 31.7394C46.6921 32.5666 47.1429 33.3641 47.4826 34.2096C47.6789 34.6983 47.9242 34.7745 48.3951 34.7261C50.189 34.5412 51.9893 34.27 53.7846 34.2884C56.3331 34.3148 58.8805 34.5564 61.426 34.7373C61.8503 34.7674 62.0688 34.691 62.2454 34.2596C62.5911 33.4158 63.0245 32.6105 63.4053 31.7812C63.5562 31.4525 63.7368 31.3323 64.1148 31.4043C68.257 32.1919 72.2561 33.4489 76.0917 35.2437C76.3505 35.3648 76.618 35.5793 76.7639 35.8246C77.8644 37.6738 79.0115 39.5 80.0018 41.4113C83.0566 47.3062 84.9862 53.5758 85.6912 60.2298C85.8181 61.4281 85.9233 62.6288 86.0386 63.8281C86.0386 65.541 86.0386 67.2538 86.0386 68.9667C85.9594 69.8358 85.9089 70.7096 85.7849 71.5718C85.7435 71.8596 85.5795 72.2114 85.36 72.3771C81.0784 75.6084 76.4159 78.0909 71.3823 79.8314C69.9651 80.3216 69.9359 80.3348 69.1216 79.031C68.2487 77.6333 67.4346 76.1965 66.554 74.7074C67.543 74.2615 68.4199 73.8961 69.2704 73.4741C70.1298 73.0476 70.963 72.5649 71.8318 72.0934C70.9199 70.981 70.7545 70.9436 69.6688 71.4181C59.782 75.7391 49.8956 75.6829 40.0137 71.4007C38.9978 70.9604 38.6622 71.0509 37.8732 72.1459C39.609 73.0103 41.3203 73.8625 43.1679 74.7827C42.1106 76.503 41.0752 78.1673 40.0646 79.8473C39.8367 80.2264 39.6075 80.261 39.2145 80.1314C33.8617 78.3674 28.9083 75.7954 24.3765 72.3737C24.1575 72.2086 23.9971 71.8564 23.9543 71.5686C23.832 70.7495 23.7851 69.9184 23.7085 69.0921ZM70.8445 58.0795C70.8263 57.8338 70.8263 57.4546 70.7631 57.0871C70.6898 56.6575 70.5912 56.2272 70.4523 55.8159C69.0865 51.7773 64.5326 50.477 61.6414 53.2932C59.0055 55.8606 58.9877 60.5482 61.6042 63.1415C63.7518 65.2698 66.925 65.231 69.0122 63.0359C70.2836 61.6985 70.8264 60.0576 70.8445 58.0795ZM50.2309 58.197C50.0714 57.4056 49.9906 56.5863 49.7393 55.827C48.4249 51.8567 43.9948 50.5071 41.0749 53.1596C38.2745 55.7035 38.2242 60.616 40.9716 63.2189C43.1391 65.2723 46.218 65.2024 48.2888 63.0384C49.5645 61.7054 50.1054 60.0635 50.2309 58.197Z" fill="#F4BB03"/>
<defs>
<filter id="filter0_b_1073_2432" x="-25" y="-25" width="158.382" height="161.582" filterUnits="userSpaceOnUse" color-interpolation-filters="sRGB">
<feFlood flood-opacity="0" result="BackgroundImageFix"/>
<feGaussianBlur in="BackgroundImageFix" stdDeviation="12.5"/>
<feComposite in2="SourceAlpha" operator="in" result="effect1_backgroundBlur_1073_2432"/>
<feBlend mode="normal" in="SourceGraphic" in2="effect1_backgroundBlur_1073_2432" result="shape"/>
</filter>
</defs>
</svg>
