<svg width="109" height="112" viewBox="0 0 109 112" fill="none" xmlns="http://www.w3.org/2000/svg">
<g filter="url(#filter0_b_1073_2423)">
<ellipse cx="54.1908" cy="55.791" rx="54.1908" ry="55.791" fill="#818181" fill-opacity="0.1"/>
<path d="M107.882 55.791C107.882 86.3412 83.8298 111.082 54.1908 111.082C24.5518 111.082 0.5 86.3412 0.5 55.791C0.5 25.2408 24.5518 0.5 54.1908 0.5C83.8298 0.5 107.882 25.2408 107.882 55.791Z" stroke="#939393" stroke-opacity="0.1"/>
</g>
<g clip-path="url(#clip0_1073_2423)">
<path d="M77.8992 40.6547C76.1358 41.451 74.257 41.9788 72.298 42.2351C74.3133 40.9964 75.8513 39.0498 76.5745 36.7035C74.6956 37.8568 72.6211 38.6715 70.4103 39.1261C68.6262 37.1703 66.0835 35.9591 63.3096 35.9591C57.9277 35.9591 53.595 40.4563 53.595 45.9696C53.595 46.7629 53.6602 47.5257 53.8203 48.2518C45.7386 47.846 38.5876 43.8583 33.7836 37.7836C32.945 39.2817 32.453 40.9964 32.453 42.8423C32.453 46.3083 34.1867 49.3807 36.7709 51.1595C35.2091 51.129 33.677 50.6622 32.3789 49.9269C32.3789 49.9574 32.3789 49.997 32.3789 50.0367C32.3789 54.9001 35.7485 58.9397 40.1671 59.8703C39.3759 60.093 38.5135 60.1998 37.6185 60.1998C36.9961 60.1998 36.3679 60.1632 35.7781 60.029C37.0376 63.9923 40.6117 66.9061 44.8614 67.0007C41.5541 69.6642 37.3547 71.2691 32.8086 71.2691C32.0114 71.2691 31.2468 71.2325 30.4822 71.1318C34.7883 73.9907 39.8915 75.623 45.3949 75.623C63.2829 75.623 73.0626 60.3676 73.0626 47.1443C73.0626 46.7019 73.0478 46.2747 73.0271 45.8506C74.9563 44.441 76.5774 42.6806 77.8992 40.6547Z" fill="#F4BB03"/>
</g>
<defs>
<filter id="filter0_b_1073_2423" x="-25" y="-25" width="158.382" height="161.582" filterUnits="userSpaceOnUse" color-interpolation-filters="sRGB">
<feFlood flood-opacity="0" result="BackgroundImageFix"/>
<feGaussianBlur in="BackgroundImageFix" stdDeviation="12.5"/>
<feComposite in2="SourceAlpha" operator="in" result="effect1_backgroundBlur_1073_2423"/>
<feBlend mode="normal" in="SourceGraphic" in2="effect1_backgroundBlur_1073_2423" result="shape"/>
</filter>
<clipPath id="clip0_1073_2423">
<rect width="47.4169" height="48.8171" fill="white" transform="translate(30.4822 31.3824)"/>
</clipPath>
</defs>
</svg>
